# xmcd CD database file
#
# Track frame offsets:
#	150
#	15723
#	30921
#	50787
#	79801
#	124292
#	169139
#	219322
#	258197
#	299842
#
# Disc length: 4323 seconds
#
# Revision: 0
# Processed by: cddbd v1.5.2PL0 Copyright (c) Steve Scherf et al.
# Submitted via: CDex 1.79
#
DISCID=8e10e10a
DTITLE=Schiller - Zeitreise (Limited Super Deluxe Edition) Disc 3
DYEAR=2016
DGENRE=New Age
TTITLE0=Once Upon A Time (Cahill Remix)
TTITLE1=Dream Of You (Filatov and Karas Mix)
TTITLE2=Ruhe (Andrew Bennet Remix)
TTITLE3=Berlin - Moskau (Chill Out Version)
TTITLE4=Das Glockenspiel (Humate Remix)
TTITLE5=Ruhe (Humate Remix)
TTITLE6=Dream Of You (Chillout Mischung)
TTITLE7=Mitternacht (Chill Out Version)
TTITLE8=Ruhe (Tom Middleton Remix)
TTITLE9=Das Glockenspiel (Schillout Remix)
EXTD=YEAR: 2016
EXTT0=
EXTT1=
EXTT2=
EXTT3=
EXTT4=
EXTT5=
EXTT6=
EXTT7=
EXTT8=
EXTT9=
PLAYORDER=
